# xmcd
#
# Track frame offsets:
#	150
#	19013
#	38186
#	58736
#	78962
#	93361
#	107928
#	124755
#	135733
#	150025
#	158884
#	177224
#	197357
#	214415
#	234440
#	255289
# Disc length: 3527 seconds
# Revision: 1
# Processed by: cddbd v1.5.2PL0 Copyright (c) Steve Scherf et al.
#
# Submitted via: libkcddb 0.31
#
DISCID=c50dc510
DTITLE=Tchangodai - Pure blues
DYEAR=2008
DGENRE=Blues
TTITLE0=Electronica
TTITLE1=Sun goes down
TTITLE2=I don't reed a flag
TTITLE3=Sentiment d'Afrique
TTITLE4=Baby won't you please come home
TTITLE5=I'll be seeing you
TTITLE6=D'instinct blues
TTITLE7=Tell me you wait for me
TTITLE8=Pour le serveur fou
TTITLE9=Boogie du bec
TTITLE10=L'europe promise
TTITLE11=Electronic blues spiritual
TTITLE12=Worried life blues
TTITLE13=Memories of you
TTITLE14=Darn the dream
TTITLE15=The keys of blues
EXTD=
EXTT0=
EXTT1=
EXTT2=
EXTT3=
EXTT4=
EXTT5=
EXTT6=
EXTT7=
EXTT8=
EXTT9=
EXTT10=
EXTT11=
EXTT12=
EXTT13=
EXTT14=
EXTT15=
PLAYORDER=
